<mxfile host="www.draw.io" modified="2019-11-08T01:06:23.675Z" agent="Mozilla/5.0 (Windows NT 10.0; Win64; x64) AppleWebKit/537.36 (KHTML, like Gecko) Chrome/78.0.3904.87 Safari/537.36" etag="i1jkeqpyEf0Xx9fEXRp7" version="12.2.2" type="github" pages="1">
  <diagram id="kgOiKqjmY7E-eNFTO_uU" name="Page-1">
    <mxGraphModel dx="1408" dy="748" grid="1" gridSize="10" guides="1" tooltips="1" connect="1" arrows="1" fold="1" page="1" pageScale="1" pageWidth="850" pageHeight="1100" math="0" shadow="0">
      <root>
        <mxCell id="0"/>
        <mxCell id="1" parent="0"/>
        <mxCell id="LInNzG0QfI24UNhKXFxT-1" value="" style="rounded=0;whiteSpace=wrap;html=1;" vertex="1" parent="1">
          <mxGeometry x="160" y="190" width="170" height="300" as="geometry"/>
        </mxCell>
        <mxCell id="LInNzG0QfI24UNhKXFxT-4" value="" style="rounded=1;whiteSpace=wrap;html=1;" vertex="1" parent="1">
          <mxGeometry x="183" y="210" width="120" height="140" as="geometry"/>
        </mxCell>
        <mxCell id="LInNzG0QfI24UNhKXFxT-5" value="" style="rounded=1;whiteSpace=wrap;html=1;" vertex="1" parent="1">
          <mxGeometry x="185" y="390" width="120" height="60" as="geometry"/>
        </mxCell>
      </root>
    </mxGraphModel>
  </diagram>
</mxfile>
